<mxfile>
    <diagram id="VQlt6WEOxXu27HQ9L5Rw" name="Page-1">
        <mxGraphModel dx="1264" dy="606" grid="1" gridSize="10" guides="1" tooltips="1" connect="1" arrows="1" fold="1" page="1" pageScale="1" pageWidth="827" pageHeight="1169" math="0" shadow="0">
            <root>
                <mxCell id="0"/>
                <mxCell id="1" parent="0"/>
                <mxCell id="8" value="&lt;font color=&quot;#66ffff&quot;&gt;/cmd_suricate&lt;br&gt;&lt;/font&gt;start_video-stream" style="rounded=0;orthogonalLoop=1;jettySize=auto;html=1;strokeColor=#FFFFFF;" parent="1" source="2" target="3" edge="1">
                    <mxGeometry relative="1" as="geometry">
                        <mxPoint x="320" y="220" as="targetPoint"/>
                        <Array as="points">
                            <mxPoint x="200" y="180"/>
                        </Array>
                    </mxGeometry>
                </mxCell>
                <mxCell id="14" style="edgeStyle=none;rounded=0;orthogonalLoop=1;jettySize=auto;html=1;strokeColor=#FFFFFF;" parent="1" source="2" target="10" edge="1">
                    <mxGeometry relative="1" as="geometry">
                        <Array as="points">
                            <mxPoint x="90" y="290"/>
                        </Array>
                    </mxGeometry>
                </mxCell>
                <mxCell id="18" value="/&lt;font color=&quot;#33ff33&quot;&gt;video_cast&lt;/font&gt;&lt;br&gt;frame" style="edgeLabel;html=1;align=center;verticalAlign=middle;resizable=0;points=[];" parent="14" vertex="1" connectable="0">
                    <mxGeometry x="-0.1388" relative="1" as="geometry">
                        <mxPoint as="offset"/>
                    </mxGeometry>
                </mxCell>
                <mxCell id="2" value=":server" style="shape=umlLifeline;perimeter=lifelinePerimeter;whiteSpace=wrap;html=1;container=1;collapsible=0;recursiveResize=0;outlineConnect=0;" parent="1" vertex="1">
                    <mxGeometry x="130" y="20" width="100" height="360" as="geometry"/>
                </mxCell>
                <mxCell id="5" value="/&lt;font color=&quot;#ffff66&quot;&gt;video_stream&lt;/font&gt;&lt;br&gt;connect" style="edgeStyle=orthogonalEdgeStyle;rounded=0;orthogonalLoop=1;jettySize=auto;html=1;" parent="1" source="3" target="2" edge="1">
                    <mxGeometry relative="1" as="geometry">
                        <Array as="points">
                            <mxPoint x="240" y="130"/>
                            <mxPoint x="240" y="130"/>
                        </Array>
                    </mxGeometry>
                </mxCell>
                <mxCell id="13" value="/&lt;font color=&quot;#66ffff&quot;&gt;cmd_suricate&lt;/font&gt;&lt;br&gt;connect" style="edgeStyle=none;rounded=0;orthogonalLoop=1;jettySize=auto;html=1;strokeColor=#FFFFFF;" parent="1" source="3" target="2" edge="1">
                    <mxGeometry relative="1" as="geometry">
                        <Array as="points">
                            <mxPoint x="230" y="100"/>
                        </Array>
                    </mxGeometry>
                </mxCell>
                <mxCell id="16" value="" style="edgeStyle=none;rounded=0;orthogonalLoop=1;jettySize=auto;html=1;entryX=-0.074;entryY=0.039;entryDx=0;entryDy=0;entryPerimeter=0;strokeColor=#FFFFFF;" parent="1" source="3" target="15" edge="1">
                    <mxGeometry relative="1" as="geometry"/>
                </mxCell>
                <mxCell id="3" value=":suricate" style="shape=umlLifeline;perimeter=lifelinePerimeter;whiteSpace=wrap;html=1;container=1;collapsible=0;recursiveResize=0;outlineConnect=0;" parent="1" vertex="1">
                    <mxGeometry x="300" y="40" width="100" height="340" as="geometry"/>
                </mxCell>
                <mxCell id="9" value="/&lt;font color=&quot;#ffff66&quot;&gt;video_stream&lt;/font&gt;&lt;br&gt;frame" style="rounded=0;orthogonalLoop=1;jettySize=auto;html=1;exitX=0.1;exitY=0.489;exitDx=0;exitDy=0;exitPerimeter=0;" parent="1" source="6" target="2" edge="1">
                    <mxGeometry relative="1" as="geometry"/>
                </mxCell>
                <mxCell id="17" value="get_frame" style="edgeStyle=none;rounded=0;orthogonalLoop=1;jettySize=auto;html=1;strokeColor=#FFFFFF;" parent="1" source="6" target="15" edge="1">
                    <mxGeometry relative="1" as="geometry">
                        <Array as="points">
                            <mxPoint x="410" y="250"/>
                        </Array>
                    </mxGeometry>
                </mxCell>
                <mxCell id="6" value="" style="html=1;points=[];perimeter=orthogonalPerimeter;" parent="1" vertex="1">
                    <mxGeometry x="345" y="205" width="10" height="135" as="geometry"/>
                </mxCell>
                <mxCell id="11" value="/&lt;font color=&quot;#33ff33&quot;&gt;video_cast&lt;/font&gt;&lt;br&gt;connect" style="rounded=0;orthogonalLoop=1;jettySize=auto;html=1;" parent="1" source="10" target="2" edge="1">
                    <mxGeometry relative="1" as="geometry">
                        <Array as="points">
                            <mxPoint x="150" y="140"/>
                        </Array>
                    </mxGeometry>
                </mxCell>
                <mxCell id="19" value="/&lt;font color=&quot;#b266ff&quot;&gt;watcher_cmd&lt;/font&gt;&lt;br&gt;connect" style="edgeStyle=none;rounded=0;orthogonalLoop=1;jettySize=auto;html=1;" edge="1" parent="1" source="10" target="2">
                    <mxGeometry relative="1" as="geometry">
                        <Array as="points">
                            <mxPoint x="90" y="170"/>
                        </Array>
                    </mxGeometry>
                </mxCell>
                <mxCell id="10" value="watcher" style="shape=umlLifeline;participant=umlActor;perimeter=lifelinePerimeter;whiteSpace=wrap;html=1;container=1;collapsible=0;recursiveResize=0;verticalAlign=top;spacingTop=36;outlineConnect=0;" parent="1" vertex="1">
                    <mxGeometry x="40" y="70" width="20" height="300" as="geometry"/>
                </mxCell>
                <mxCell id="15" value=":camera" style="shape=umlLifeline;perimeter=lifelinePerimeter;whiteSpace=wrap;html=1;container=1;collapsible=0;recursiveResize=0;outlineConnect=0;" parent="1" vertex="1">
                    <mxGeometry x="440" y="180" width="100" height="340" as="geometry"/>
                </mxCell>
            </root>
        </mxGraphModel>
    </diagram>
    <diagram id="98segxhLp1Hp-o_43S23" name="Page-2">
        &#xa;
        <mxGraphModel dx="1517" dy="727" grid="1" gridSize="10" guides="1" tooltips="1" connect="1" arrows="1" fold="1" page="1" pageScale="1" pageWidth="827" pageHeight="1169" math="0" shadow="0">
            &#xa;
            <root>
                &#xa;
                <mxCell id="tRPiEnZFqq3PnqShJuWT-0"/>
                &#xa;
                <mxCell id="tRPiEnZFqq3PnqShJuWT-1" parent="tRPiEnZFqq3PnqShJuWT-0"/>
                &#xa;
                <mxCell id="tRPiEnZFqq3PnqShJuWT-5" value="WatcherVideoCastNS" style="swimlane;fontStyle=0;childLayout=stackLayout;horizontal=1;startSize=26;fillColor=none;horizontalStack=0;resizeParent=1;resizeParentMax=0;resizeLast=0;collapsible=1;marginBottom=0;" vertex="1" parent="tRPiEnZFqq3PnqShJuWT-1">
                    &#xa;
                    <mxGeometry x="110" y="160" width="170" height="104" as="geometry"/>
                    &#xa;
                </mxCell>
                &#xa;
                <mxCell id="tRPiEnZFqq3PnqShJuWT-6" value="+ field: type" style="text;strokeColor=none;fillColor=none;align=left;verticalAlign=top;spacingLeft=4;spacingRight=4;overflow=hidden;rotatable=0;points=[[0,0.5],[1,0.5]];portConstraint=eastwest;" vertex="1" parent="tRPiEnZFqq3PnqShJuWT-5">
                    &#xa;
                    <mxGeometry y="26" width="170" height="26" as="geometry"/>
                    &#xa;
                </mxCell>
                &#xa;
                <mxCell id="tRPiEnZFqq3PnqShJuWT-7" value="+ field: type" style="text;strokeColor=none;fillColor=none;align=left;verticalAlign=top;spacingLeft=4;spacingRight=4;overflow=hidden;rotatable=0;points=[[0,0.5],[1,0.5]];portConstraint=eastwest;" vertex="1" parent="tRPiEnZFqq3PnqShJuWT-5">
                    &#xa;
                    <mxGeometry y="52" width="170" height="26" as="geometry"/>
                    &#xa;
                </mxCell>
                &#xa;
                <mxCell id="tRPiEnZFqq3PnqShJuWT-8" value="+ field: type" style="text;strokeColor=none;fillColor=none;align=left;verticalAlign=top;spacingLeft=4;spacingRight=4;overflow=hidden;rotatable=0;points=[[0,0.5],[1,0.5]];portConstraint=eastwest;" vertex="1" parent="tRPiEnZFqq3PnqShJuWT-5">
                    &#xa;
                    <mxGeometry y="78" width="170" height="26" as="geometry"/>
                    &#xa;
                </mxCell>
                &#xa;
                <mxCell id="tRPiEnZFqq3PnqShJuWT-9" value="SuricateVideoStreamNS" style="swimlane;fontStyle=0;childLayout=stackLayout;horizontal=1;startSize=26;fillColor=none;horizontalStack=0;resizeParent=1;resizeParentMax=0;resizeLast=0;collapsible=1;marginBottom=0;" vertex="1" parent="tRPiEnZFqq3PnqShJuWT-1">
                    &#xa;
                    <mxGeometry x="344" y="160" width="176" height="104" as="geometry"/>
                    &#xa;
                </mxCell>
                &#xa;
                <mxCell id="tRPiEnZFqq3PnqShJuWT-10" value="+ field: type" style="text;strokeColor=none;fillColor=none;align=left;verticalAlign=top;spacingLeft=4;spacingRight=4;overflow=hidden;rotatable=0;points=[[0,0.5],[1,0.5]];portConstraint=eastwest;" vertex="1" parent="tRPiEnZFqq3PnqShJuWT-9">
                    &#xa;
                    <mxGeometry y="26" width="176" height="26" as="geometry"/>
                    &#xa;
                </mxCell>
                &#xa;
                <mxCell id="tRPiEnZFqq3PnqShJuWT-11" value="+ field: type" style="text;strokeColor=none;fillColor=none;align=left;verticalAlign=top;spacingLeft=4;spacingRight=4;overflow=hidden;rotatable=0;points=[[0,0.5],[1,0.5]];portConstraint=eastwest;" vertex="1" parent="tRPiEnZFqq3PnqShJuWT-9">
                    &#xa;
                    <mxGeometry y="52" width="176" height="26" as="geometry"/>
                    &#xa;
                </mxCell>
                &#xa;
                <mxCell id="tRPiEnZFqq3PnqShJuWT-12" value="+ field: type" style="text;strokeColor=none;fillColor=none;align=left;verticalAlign=top;spacingLeft=4;spacingRight=4;overflow=hidden;rotatable=0;points=[[0,0.5],[1,0.5]];portConstraint=eastwest;" vertex="1" parent="tRPiEnZFqq3PnqShJuWT-9">
                    &#xa;
                    <mxGeometry y="78" width="176" height="26" as="geometry"/>
                    &#xa;
                </mxCell>
                &#xa;
            </root>
            &#xa;
        </mxGraphModel>
        &#xa;
    </diagram>
</mxfile>